<svg width="38" height="28" viewBox="0 0 38 28" fill="none" xmlns="http://www.w3.org/2000/svg">
<path d="M12.3333 11.1635C12.3333 10.5219 12.8583 9.99687 13.5 9.99687H24V3.15C24 2.63229 24.6271 2.36979 24.9917 2.73438L35.3167 13.1687C35.776 13.6281 35.776 14.3646 35.3167 14.824L24.9917 25.2583C24.6271 25.6229 24 25.3677 24 24.8427V17.9958H13.5C12.8583 17.9958 12.3333 17.4708 12.3333 16.8292V11.1635V11.1635ZM9.99999 11.1635V16.8292C9.99999 18.7615 11.5677 20.3292 13.5 20.3292H21.6667V24.8427C21.6667 27.4313 24.8021 28.7437 26.6396 26.9062L36.9719 16.4792C38.3427 15.1083 38.3427 12.8917 36.9719 11.5208L26.6396 1.08646C24.8094 -0.74375 21.6667 0.554167 21.6667 3.15V7.66354H13.5C11.5677 7.66354 9.99999 9.23854 9.99999 11.1635V11.1635ZM0.666656 3.5V24.5C0.666656 26.4323 2.23436 28 4.16666 28H13.7917C14.2729 28 14.6667 27.6062 14.6667 27.125V26.5417C14.6667 26.0604 14.2729 25.6667 13.7917 25.6667H4.16666C3.52499 25.6667 2.99999 25.1417 2.99999 24.5V3.5C2.99999 2.85833 3.52499 2.33333 4.16666 2.33333H13.7917C14.2729 2.33333 14.6667 1.93958 14.6667 1.45833V0.875C14.6667 0.39375 14.2729 0 13.7917 0H4.16666C2.23436 0 0.666656 1.56771 0.666656 3.5Z" fill="#E8BDAC"/>
</svg>
